<svg width="24" height="24" viewBox="0 0 24 24" fill="none" xmlns="http://www.w3.org/2000/svg">
<path d="M20.5257 13.0997L18.1688 5.77781C18.1334 5.66766 18.0712 5.56795 17.988 5.48761L12.5124 0.197437C12.3813 0.0707812 12.2062 0 12.0239 0H11.9761C11.7938 0 11.6187 0.0707812 11.4876 0.197437L6.01195 5.48761C5.92875 5.568 5.86664 5.6677 5.8312 5.77781L3.47432 13.0997C3.42084 13.2658 3.43106 13.4458 3.50292 13.6048L6.08859 19.3236C6.16073 19.483 6.28973 19.6099 6.45037 19.6793L11.2969 21.7736V23.2969C11.2969 23.6852 11.6117 24 12 24C12.3883 24 12.7031 23.6852 12.7031 23.2969V21.7736L17.5497 19.6793C17.7103 19.6099 17.8393 19.483 17.9114 19.3236L20.4971 13.6048C20.5689 13.4459 20.5792 13.2658 20.5257 13.0997ZM16.7421 18.4964L12.7031 20.2417V18.0505L16.8589 14.8364C17.1661 14.5988 17.2225 14.1572 16.9849 13.85C16.7474 13.5428 16.3057 13.4864 15.9986 13.724L12.7031 16.2727V14.0146C12.7217 14.0028 12.7401 13.9903 12.7579 13.9765L16.3942 11.1641C16.7013 10.9266 16.7578 10.485 16.5202 10.1778C16.2825 9.87061 15.8409 9.81413 15.5338 10.0518L12.7031 12.2411V9.78155L14.9719 8.02688C15.279 7.78931 15.3355 7.3477 15.0979 7.04053C14.8603 6.73336 14.4187 6.67687 14.1115 6.91453L12.7031 8.00381V4.34297C12.7031 3.95466 12.3883 3.63984 12 3.63984C11.6117 3.63984 11.2969 3.95466 11.2969 4.34297V8.00377L9.88842 6.91448C9.58125 6.67692 9.13964 6.73331 8.90207 7.04048C8.66451 7.34766 8.7209 7.78927 9.02807 8.02683L11.2968 9.7815V12.2411L8.46609 10.0518C8.15887 9.81427 7.71726 9.87061 7.47975 10.1778C7.24218 10.485 7.29857 10.9266 7.60575 11.1641L11.242 13.9765C11.2598 13.9903 11.2782 14.0028 11.2968 14.0146V16.2727L8.00128 13.724C7.69411 13.4864 7.2525 13.5428 7.01493 13.85C6.77737 14.1571 6.83376 14.5987 7.14093 14.8363L11.2969 18.0505V20.2417L7.25789 18.4964L4.896 13.2725L7.11576 6.3765L12 1.65773L16.8842 6.3765L19.104 13.2725L16.7421 18.4964Z" fill="white"/>
</svg>
