<svg width="24" height="24" viewBox="0 0 24 24" fill="none" xmlns="http://www.w3.org/2000/svg">
<path d="M3.51524 14.9697C4.42087 15.6514 5.09022 16.0557 5.57887 16.3508C6.32051 16.7987 6.74171 17.0531 7.09287 17.6915C7.14978 17.7949 7.31342 17.7949 7.37034 17.6915C7.72149 17.0532 8.1427 16.7988 8.88433 16.3508C9.37298 16.0557 10.0423 15.6514 10.948 14.9697C12.4658 13.8272 14.9309 11.4749 14.386 8.55836C13.9852 6.41527 12.226 5.30053 9.67888 5.57673C8.93368 5.65686 8.30745 5.33013 7.91363 5.04185C7.79593 4.95455 7.65709 4.89513 7.50977 4.86017C7.49081 4.87364 7.48228 4.8797 7.46332 4.89317V6.99852C9.17943 7.11081 11.7647 8.83531 11.8787 8.91195C11.9821 8.98144 12.0035 9.11364 11.9267 9.2071C11.8809 9.26279 11.8106 9.29218 11.7393 9.29218C11.6909 9.29218 11.6422 9.27865 11.6004 9.2505C11.5738 9.23259 9.03319 7.53602 7.46332 7.42005V9.67836C8.6152 9.74587 10.8503 11.2565 11.1211 11.4422C11.2237 11.5126 11.2438 11.6449 11.166 11.7378C11.1202 11.7925 11.0505 11.8213 10.98 11.8213C10.9309 11.8213 10.8814 11.8073 10.8392 11.7784C9.87626 11.1181 8.19794 10.1423 7.46333 10.0974V12.0325C8.06991 12.2479 9.07572 13.2831 9.67433 13.9434C9.75602 14.0335 9.74152 14.1665 9.64191 14.2403C9.59855 14.2725 9.54616 14.2882 9.49416 14.2882C9.42666 14.2882 9.35977 14.2619 9.31368 14.211C8.66875 13.4998 7.86436 12.7384 7.46333 12.4933V16.264C7.46333 16.3805 7.35893 16.4749 7.23009 16.4749C7.10125 16.4749 6.99684 16.3805 6.99684 16.264V12.4988C6.60035 12.7514 5.80421 13.506 5.16501 14.211C5.11893 14.2619 5.05204 14.2882 4.98454 14.2882C4.93253 14.2882 4.88014 14.2725 4.83678 14.2403C4.73717 14.1665 4.72267 14.0335 4.80437 13.9434C5.39671 13.2901 6.38964 12.2711 6.99684 12.0407V10.0994C6.25352 10.159 4.59468 11.1235 3.63952 11.7784C3.59738 11.8073 3.54788 11.8213 3.49876 11.8213C3.42831 11.8213 3.35861 11.7925 3.31275 11.7378C3.23492 11.6449 3.25505 11.5126 3.35769 11.4422C3.62706 11.2575 5.8402 9.7627 6.99683 9.67962V7.42272C5.42837 7.55286 2.90492 9.23264 2.87838 9.2505C2.83654 9.27865 2.7878 9.29218 2.73944 9.29218C2.66815 9.29218 2.59784 9.26279 2.55205 9.2071C2.47522 9.11364 2.49663 8.98144 2.60004 8.91195C2.71369 8.83552 5.28154 7.12187 6.99684 6.99971V4.89316C6.97822 4.87997 6.96984 4.87403 6.95122 4.86084C6.80444 4.89587 6.66685 4.95482 6.5507 5.04095C6.15575 5.33012 5.52952 5.65728 4.78454 5.57672C4.52838 5.54897 4.27995 5.53524 4.04026 5.53524C1.89721 5.53524 0.437714 6.63075 0.0772172 8.55835C-0.467685 11.4749 1.99736 13.8272 3.51524 14.9697Z" fill="white"/>
<path d="M22.1281 5.48108C21.7961 5.48108 21.4816 5.55688 21.1939 5.70635C20.5997 6.01517 20.2544 6.60673 20.2544 7.22662V7.65097C20.9339 8.03542 21.3511 8.71101 21.3511 9.44383V21.3835C21.3511 21.5043 21.4357 21.6139 21.5627 21.6511C21.7992 21.7204 22.0493 21.7467 22.3105 21.7239C23.2798 21.6396 24.0002 20.8695 24.0002 19.9887C24.0002 17.26 24.0002 9.46933 24.0002 7.22505C24.0002 6.60525 23.6544 6.0142 23.06 5.70585C22.7724 5.55669 22.4585 5.48108 22.1281 5.48108Z" fill="white"/>
<path d="M19.9099 7.95687C19.6361 7.8209 19.3261 7.74921 19.0124 7.74921C18.8222 7.74921 18.6355 7.77441 18.4577 7.82412C18.3416 7.85667 18.2265 7.90124 18.1158 7.95645C17.5127 8.25318 17.1387 8.82288 17.1387 9.44387V22.3053C17.1387 23.2397 17.9792 24 19.0124 24C20.0447 24 20.8845 23.2397 20.8845 22.3053V9.44387C20.8845 8.82309 20.511 8.25332 19.9099 7.95687Z" fill="white"/>
<path d="M7.61868 4.27735V0.703209H16.5226C17.7807 1.11354 18.623 2.19271 18.623 3.40672V5.71278C18.623 5.80165 18.7123 5.86496 18.8093 5.85053C18.875 5.84074 18.9426 5.83556 19.0117 5.83556C19.0805 5.83556 19.1479 5.84082 19.2136 5.85077C19.3107 5.86548 19.4004 5.80222 19.4004 5.71311V3.40672C19.4004 2.40239 18.9357 1.47331 18.1654 0.811989C19.7599 1.1484 21.0724 2.2404 21.5474 3.68192C21.5726 3.75868 21.6603 3.80507 21.7448 3.78094C21.8695 3.74531 21.9905 3.7432 22.1179 3.72825C22.3244 3.70404 22.3118 3.53681 22.2624 3.39651C22.2072 3.23973 22.1431 3.08553 22.0705 2.93469C21.9272 2.63723 21.7506 2.353 21.5446 2.0874C21.137 1.5619 20.6145 1.11071 20.0162 0.765549C19.4124 0.417195 18.7328 0.178228 18.0267 0.0690435C17.7295 0.0230817 17.4279 0 17.1264 0H7.22918C7.01447 0 6.84045 0.157391 6.84045 0.351593C6.84122 0.358409 6.84122 4.27746 6.84122 4.27746C6.84122 4.3622 6.92335 4.4275 7.01615 4.41583C7.08661 4.40698 7.15804 4.40243 7.22995 4.40243C7.30202 4.40243 7.3735 4.40695 7.44393 4.41572C7.53668 4.42731 7.61868 4.36203 7.61868 4.27735Z" fill="white"/>
<path d="M7.50732 4.85951C7.49266 4.85606 7.47821 4.85209 7.46338 4.84918V4.89311C7.47873 4.8826 7.49386 4.87191 7.50732 4.85951Z" fill="white"/>
<path d="M6.9969 4.89307V4.8501C6.98229 4.85298 6.96804 4.85679 6.95361 4.8602C6.96687 4.87235 6.98182 4.88277 6.9969 4.89307Z" fill="white"/>
<path d="M19.2769 6.30239C19.1938 6.27484 19.1053 6.25745 19.0118 6.25745C18.9176 6.25745 18.8287 6.2743 18.7454 6.30148C18.4544 6.39654 18.2458 6.64123 18.2374 6.93798C18.2372 6.94429 18.2367 6.95068 18.2358 6.957C18.2358 7.06384 18.2255 7.20079 18.3001 7.29128C18.3891 7.39913 18.4947 7.37584 18.6211 7.35726C18.7505 7.33826 18.8816 7.32934 19.0126 7.33012C19.2759 7.33169 19.539 7.37241 19.7877 7.45063V6.95927C19.7877 6.65688 19.574 6.40088 19.2769 6.30239Z" fill="white"/>
</svg>
