<svg width="24" height="24" viewBox="0 0 24 24" fill="none" xmlns="http://www.w3.org/2000/svg">
<path d="M24 5.19514C24 4.83152 23.6668 4.53671 23.2558 4.53671C23.2205 4.53671 22.7071 4.53926 21.9979 4.67325C23.0515 3.93984 24 2.71029 24 0.658436C24 0.294815 23.6668 0 23.2558 0C23.1963 0 21.782 0.00724282 20.3595 0.636543C19.8683 0.853827 19.3434 1.16058 18.873 1.58971V0.658436C18.873 0.294815 18.5398 0 18.1289 0C17.7179 0 17.3847 0.294815 17.3847 0.658436V1.58979C16.9144 1.16066 16.3893 0.853909 15.8983 0.636625C14.4757 0.00724282 13.0613 0 13.0018 0C12.5908 0 12.2576 0.294815 12.2576 0.658436C12.2576 2.71029 13.2061 3.93984 14.2598 4.67325C13.5506 4.53926 13.0372 4.53671 13.0018 4.53671C12.5908 4.53671 12.2576 4.83152 12.2576 5.19514C12.2576 7.24683 13.2061 8.4763 14.2597 9.20963C13.5506 9.07564 13.0372 9.07309 13.0018 9.07309C12.5908 9.07309 12.2576 9.3679 12.2576 9.73152C12.2576 11.5105 12.9707 12.6714 13.847 13.4269C13.3586 13.3594 13.0298 13.3578 13.0018 13.3578C12.5908 13.3578 12.2576 13.6526 12.2576 14.0162C12.2576 16.6962 13.8754 17.9745 15.2324 18.5749C16.0321 18.9287 16.8293 19.0859 17.3846 19.1558V23.3416C17.3846 23.7052 17.7178 24 18.1288 24C18.5397 24 18.873 23.7052 18.873 23.3416V19.1558C19.4282 19.086 20.2253 18.9288 21.0251 18.5749C22.3822 17.9745 23.9999 16.6962 23.9999 14.0162C23.9999 13.6526 23.6667 13.3578 23.2557 13.3578C23.2277 13.3578 22.899 13.3594 22.4105 13.4269C23.2868 12.6714 23.9999 11.5106 23.9999 9.73152C23.9999 9.3679 23.6667 9.07309 23.2557 9.07309C23.2204 9.07309 22.707 9.07564 21.9979 9.20963C23.0515 8.4763 24 7.24683 24 5.19514ZM20.401 8.55695C19.8786 8.79399 19.3468 8.92222 18.929 8.99152C19.1216 7.78206 19.8104 6.90197 20.9835 6.36979C21.5062 6.13267 22.038 6.00453 22.4555 5.93514C22.263 7.14469 21.5742 8.02469 20.401 8.55695ZM20.9835 1.833C21.5062 1.59597 22.038 1.46774 22.4555 1.39835C22.263 2.60798 21.5742 3.48823 20.401 4.02049C19.8786 4.25753 19.3468 4.38576 18.929 4.45506C19.1216 3.2456 19.8104 2.36535 20.9835 1.833ZM13.8021 1.39844C14.2199 1.46782 14.7517 1.59597 15.2741 1.833C16.4472 2.36535 17.136 3.24551 17.3286 4.45506C16.9108 4.38568 16.379 4.25753 15.8566 4.02049C14.6834 3.48823 13.9946 2.60807 13.8021 1.39844ZM13.8019 5.92658C14.9529 6.10979 16.9688 6.7516 17.3288 9.00016C16.1778 8.81695 14.1619 8.17506 13.8019 5.92658ZM13.8021 10.4715C14.2199 10.5409 14.7517 10.6691 15.2741 10.9062C16.4472 11.4384 17.136 12.3188 17.3286 13.5284C16.9108 13.459 16.379 13.3309 15.8566 13.0937C14.6834 12.5616 13.9946 11.6812 13.8021 10.4715ZM15.8566 17.3784C14.6835 16.8461 13.9946 15.9658 13.8021 14.7562C14.2199 14.8256 14.7517 14.9537 15.2741 15.1909C16.4472 15.7231 17.136 16.6034 17.3286 17.813C16.9108 17.7437 16.379 17.6155 15.8566 17.3784ZM20.401 17.3784C19.8786 17.6155 19.3468 17.7436 18.929 17.813C19.1216 16.6034 19.8104 15.723 20.9835 15.1909C21.5062 14.9537 22.038 14.8255 22.4555 14.7561C22.263 15.9658 21.5742 16.8462 20.401 17.3784ZM20.401 13.0938C19.8786 13.3309 19.3468 13.4591 18.929 13.5285C19.1216 12.3188 19.8104 11.4384 20.9835 10.9063C21.5062 10.6691 22.038 10.5409 22.4555 10.4715C22.263 11.6812 21.5742 12.5616 20.401 13.0938Z" fill="white"/>
<path d="M10.328 3.7873C10.328 3.42368 9.99475 3.12887 9.58378 3.12887C9.53141 3.12887 8.28871 3.1352 7.041 3.68722C6.6689 3.85183 6.27467 4.0743 5.90798 4.37339V3.78722C5.90798 3.4236 5.57477 3.12878 5.16379 3.12878C4.75282 3.12878 4.41961 3.4236 4.41961 3.78722V4.37315C4.05301 4.07405 3.65878 3.85166 3.28678 3.68714C2.03916 3.13512 0.796462 3.12878 0.744183 3.12878C0.333208 3.12878 0 3.4236 0 3.78722C0 5.39957 0.667346 6.43529 1.47181 7.09833C1.05107 7.04113 0.768555 7.03973 0.744183 7.03973C0.333208 7.03973 0 7.33455 0 7.69817C0 9.31043 0.667346 10.3462 1.47172 11.0092C1.05097 10.952 0.768555 10.9506 0.744183 10.9506C0.333208 10.9506 0 11.2454 0 11.609C0 13.9656 1.42539 15.0908 2.6212 15.6198C3.28036 15.9115 3.93803 16.0508 4.41961 16.1173V23.3415C4.41961 23.7052 4.75282 24 5.16379 24C5.57477 24 5.90798 23.7052 5.90798 23.3415V16.1173C6.38956 16.0508 7.04732 15.9115 7.70657 15.6199C8.90238 15.0908 10.328 13.9656 10.328 11.6091C10.328 11.2455 9.99475 10.9507 9.58378 10.9507C9.55941 10.9507 9.27689 10.9522 8.85615 11.0093C9.66061 10.3463 10.328 9.3106 10.328 7.69825C10.328 7.33463 9.99475 7.03981 9.58378 7.03981C9.55941 7.03981 9.27689 7.04129 8.85606 7.09841C9.66061 6.43537 10.328 5.39965 10.328 3.7873ZM7.66592 4.88335C8.05029 4.70821 8.44136 4.60319 8.76918 4.54006C8.5809 5.48483 8.0155 6.17669 7.08165 6.60212C6.69737 6.77718 6.3064 6.88228 5.9784 6.94533C6.16677 6.00055 6.73207 5.30878 7.66592 4.88335ZM4.34929 10.8561C4.02129 10.7931 3.6304 10.688 3.24622 10.5129C2.31255 10.0876 1.74734 9.3957 1.55888 8.45101C1.88688 8.51405 2.27776 8.61915 2.66194 8.79422C3.59561 9.21965 4.16082 9.9115 4.34929 10.8561ZM7.66592 8.7943C8.05029 8.61915 8.44136 8.51413 8.76918 8.45101C8.5809 9.39578 8.0155 10.0876 7.08165 10.513C6.69737 10.688 6.3064 10.7931 5.9784 10.8562C6.16677 9.91142 6.73207 9.21973 7.66592 8.7943ZM4.34919 6.95364C3.39301 6.77463 1.89906 6.22393 1.55897 4.53175C2.51515 4.71076 4.00901 5.26154 4.34919 6.95364ZM1.55897 12.3536C2.51515 12.5326 4.0091 13.0832 4.34919 14.7753C3.39292 14.5963 1.89906 14.0456 1.55897 12.3536ZM7.08183 14.4237C6.69746 14.5987 6.30649 14.7038 5.97849 14.7669C6.16686 13.8223 6.73225 13.1304 7.66592 12.7051C8.05039 12.5299 8.44136 12.4249 8.76927 12.3618C8.5809 13.3066 8.0156 13.9983 7.08183 14.4237Z" fill="white"/>
</svg>
