<svg width="56" height="56" viewBox="0 0 56 56" fill="none" xmlns="http://www.w3.org/2000/svg">
<g filter="url(#filter0_d_337_5)">
<path d="M25.3333 2.66667C25.3333 2.66667 25.3333 0 28 0C30.6667 0 30.6667 2.66667 30.6667 2.66667V5.33333C30.6667 5.33333 30.6667 8 28 8C25.3333 8 25.3333 5.33333 25.3333 5.33333V2.66667ZM49.3333 21.3333C49.3333 21.3333 52 21.3333 52 24C52 26.6667 49.3333 26.6667 49.3333 26.6667H46.6667C46.6667 26.6667 44 26.6667 44 24C44 21.3333 46.6667 21.3333 46.6667 21.3333H49.3333ZM9.33333 21.3333C9.33333 21.3333 12 21.3333 12 24C12 26.6667 9.33333 26.6667 9.33333 26.6667H6.66667C6.66667 26.6667 4 26.6667 4 24C4 21.3333 6.66667 21.3333 6.66667 21.3333H9.33333ZM16.1613 9.724C16.1613 9.724 18.0467 11.6093 16.1613 13.4947C14.276 15.38 12.3907 13.4947 12.3907 13.4947L10.504 11.6107C10.504 11.6107 8.61867 9.72533 10.504 7.83867C12.3907 5.95333 14.276 7.83867 14.276 7.83867L16.1613 9.724ZM44.1613 37.724C44.1613 37.724 46.0467 39.6093 44.1613 41.4947C42.276 43.38 40.3907 41.4947 40.3907 41.4947L38.5053 39.6093C38.5053 39.6093 36.62 37.724 38.5053 35.8387C40.3907 33.9533 42.276 35.8387 42.276 35.8387L44.1613 37.724ZM43.6107 13.4947C43.6107 13.4947 41.7253 15.38 39.84 13.4947C37.9547 11.6093 39.84 9.724 39.84 9.724L41.7253 7.83867C41.7253 7.83867 43.6107 5.95333 45.496 7.83867C47.3813 9.724 45.496 11.6093 45.496 11.6093L43.6107 13.4947ZM15.6107 41.4947C15.6107 41.4947 13.7253 43.38 11.84 41.4947C9.95467 39.6093 11.84 37.724 11.84 37.724L13.7253 35.8387C13.7253 35.8387 15.6107 33.9533 17.496 35.8387C19.3813 37.724 17.496 39.6093 17.496 39.6093L15.6107 41.4947ZM25.3333 42.6667C25.3333 42.6667 25.3333 40 28 40C30.6667 40 30.6667 42.6667 30.6667 42.6667V45.3333C30.6667 45.3333 30.6667 48 28 48C25.3333 48 25.3333 45.3333 25.3333 45.3333V42.6667Z" fill="#FFAC33"/>
<path d="M27.9998 37.3333C35.3636 37.3333 41.3332 31.3638 41.3332 24C41.3332 16.6362 35.3636 10.6667 27.9998 10.6667C20.636 10.6667 14.6665 16.6362 14.6665 24C14.6665 31.3638 20.636 37.3333 27.9998 37.3333Z" fill="#FFAC33"/>
</g>
<defs>
<filter id="filter0_d_337_5" x="0" y="0" width="56" height="56" filterUnits="userSpaceOnUse" color-interpolation-filters="sRGB">
<feFlood flood-opacity="0" result="BackgroundImageFix"/>
<feColorMatrix in="SourceAlpha" type="matrix" values="0 0 0 0 0 0 0 0 0 0 0 0 0 0 0 0 0 0 127 0" result="hardAlpha"/>
<feOffset dy="4"/>
<feGaussianBlur stdDeviation="2"/>
<feComposite in2="hardAlpha" operator="out"/>
<feColorMatrix type="matrix" values="0 0 0 0 0 0 0 0 0 0 0 0 0 0 0 0 0 0 0.15 0"/>
<feBlend mode="normal" in2="BackgroundImageFix" result="effect1_dropShadow_337_5"/>
<feBlend mode="normal" in="SourceGraphic" in2="effect1_dropShadow_337_5" result="shape"/>
</filter>
</defs>
</svg>
