<svg width="32" height="27" viewBox="0 0 32 27" fill="none" xmlns="http://www.w3.org/2000/svg">
<path d="M16.2381 15.8719C16.2486 15.8719 16.2591 15.8719 16.2696 15.8713C16.4947 15.8609 16.7055 15.797 16.8998 15.6805C17.1034 15.5562 17.271 15.3772 17.4156 15.0907L22.8066 0.906416C22.8813 0.709791 22.8583 0.489104 22.7445 0.311354C22.6306 0.134291 22.4388 0.0209791 22.2274 0.00597906C21.7051 -0.0292084 21.1638 0.0912915 20.705 0.357542L1.16051 11.6764C0.665702 11.9629 0.282827 12.3978 0.0537647 12.9349C-0.0287353 13.127 -0.0156103 13.3464 0.0884522 13.5274C0.192515 13.7084 0.376452 13.8302 0.58389 13.8569L16.1518 15.866C16.1806 15.87 16.2093 15.8719 16.2381 15.8719Z" fill="#404040"/>
<path d="M31.6457 14.0197L24.89 2.28153C24.7611 2.05821 24.515 1.93128 24.2552 1.94815C23.9967 1.96896 23.7728 2.13565 23.6812 2.37721L18.6376 15.6467L18.5754 15.7723C18.349 16.2066 18.0106 16.5686 17.5956 16.8199C17.1793 17.0725 16.6989 17.206 16.2002 17.206L16.0654 17.2001L1.42434 15.3101C1.17365 15.2769 0.923029 15.3895 0.780966 15.5998C0.639591 15.8108 0.629779 16.0823 0.756091 16.3023L5.18678 24H3.33697C2.96684 24 2.66678 24.2984 2.66678 24.6667V26C2.66678 26.3682 2.96684 26.6667 3.33697 26.6667H28.6501C29.0202 26.6667 29.3203 26.3682 29.3203 26V24.6667C29.3203 24.2984 29.0202 24 28.6501 24H19.7175L30.6718 17.6559C31.9402 16.9215 32.3768 15.2899 31.6457 14.0197Z" fill="#404040"/>
</svg>
