<svg width="24" height="24" viewBox="0 0 24 24" fill="none" xmlns="http://www.w3.org/2000/svg">
<path d="M19.175 18.8902C19.4117 18.2939 19.4615 17.5264 18.8481 16.8505C18.3381 16.2888 17.586 16.1429 16.7844 16.4503C16.74 16.4673 16.6966 16.4853 16.6543 16.5038C16.123 15.6752 15.3104 15.6885 15.026 15.7225C14.2247 15.8187 13.3934 16.4313 12.7031 17.4217V14.2047C13.1717 14.2349 13.8133 14.2647 14.5195 14.2647C14.8278 14.2647 15.1483 14.259 15.4719 14.2451C18.1803 14.1295 19.6485 13.5024 19.9606 12.3282C20.0998 11.8044 20.0403 11.3028 19.7884 10.8776C19.6234 10.5992 19.3984 10.391 19.175 10.2378C19.4116 9.64144 19.4615 8.87395 18.848 8.19816C18.3382 7.63631 17.5859 7.49044 16.7843 7.79789C16.7399 7.81491 16.6965 7.83286 16.6543 7.85142C16.123 7.02277 15.3103 7.03594 15.0259 7.07016C14.2246 7.16634 13.3934 7.77895 12.703 8.76933V6.97111C13.0002 6.91125 13.3614 6.80653 13.7272 6.6233C14.8868 6.04247 15.5254 4.94142 15.5254 3.52289C15.5254 2.5687 14.8895 1.76016 14.0194 1.49869C13.7557 0.63225 12.949 0 11.9975 0C11.0452 0 10.2381 0.633047 9.97498 1.50042C9.10761 1.76362 8.47456 2.57072 8.47456 3.52294C8.47456 4.91114 9.11206 6.00216 10.2696 6.59489C10.637 6.78305 10.9996 6.89344 11.2969 6.95836V8.76938C10.6066 7.779 9.7753 7.16639 8.97402 7.0702C8.68962 7.03594 7.877 7.02286 7.34562 7.85147C7.30334 7.83291 7.25998 7.81495 7.21559 7.79794C6.41398 7.49048 5.66183 7.63645 5.15187 8.1982C4.53847 8.874 4.58834 9.64153 4.82497 10.2379C4.60152 10.3911 4.37652 10.5992 4.21156 10.8777C3.95966 11.3029 3.90012 11.8045 4.03934 12.3283C4.35144 13.5025 5.81966 14.1296 8.528 14.2452C8.85177 14.259 9.17206 14.2648 9.48041 14.2648C10.1866 14.2648 10.8282 14.2349 11.2969 14.2048V17.4218C10.6065 16.4314 9.77525 15.8188 8.97397 15.7226C8.68958 15.6885 7.87695 15.6753 7.34558 16.5039C7.3033 16.4854 7.25994 16.4674 7.21555 16.4504C6.41398 16.143 5.66178 16.2888 5.15183 16.8507C4.53842 17.5265 4.5883 18.294 4.82492 18.8903C4.60147 19.0435 4.37647 19.2517 4.21152 19.5301C3.95961 19.9553 3.90008 20.457 4.0393 20.9807C4.35139 22.155 5.81961 22.782 8.52795 22.8977C8.85172 22.9116 9.17202 22.9172 9.48031 22.9172C10.1865 22.9172 10.8281 22.8874 11.2968 22.8572V23.2969C11.2968 23.6852 11.6116 24 11.9999 24C12.3882 24 12.703 23.6852 12.703 23.2969V22.857C13.1717 22.8872 13.8132 22.917 14.5195 22.917C14.8277 22.917 15.1482 22.9113 15.4718 22.8975C18.1802 22.7819 19.6484 22.1549 19.9605 20.9805C20.0997 20.4568 20.0402 19.9552 19.7883 19.53C19.6235 19.2516 19.3985 19.0433 19.175 18.8902ZM13.666 9.86644C14.2164 8.95992 14.8298 8.51006 15.1936 8.46642C15.2665 8.45775 15.4888 8.43094 15.6367 9.03792C15.6943 9.27436 15.8701 9.4642 16.1014 9.53986C16.3327 9.61542 16.5867 9.56616 16.7728 9.40931C16.775 9.40748 17.0052 9.21942 17.288 9.11095C17.651 8.97169 17.7524 9.08339 17.8068 9.14334C18.1265 9.49561 17.7135 10.0065 17.6545 10.076C17.486 10.2604 17.4259 10.5147 17.5002 10.7534C17.5744 10.992 17.7675 11.1674 18.0108 11.2237C18.0824 11.2433 18.2903 11.3187 18.4465 11.4472C18.6219 11.5915 18.6639 11.7324 18.6015 11.967C18.5282 12.2431 17.7766 12.7376 15.4251 12.8397C14.3922 12.8845 13.3709 12.839 12.7319 12.7967C12.8263 11.7384 13.1497 10.7167 13.666 9.86644ZM9.88081 3.52294C9.88081 3.13322 10.1979 2.81616 10.5876 2.81616C10.9759 2.81616 11.2907 2.50134 11.2907 2.11303C11.2907 1.72331 11.6078 1.40625 11.9975 1.40625C12.3872 1.40625 12.7043 1.72331 12.7043 2.11317C12.7043 2.50148 13.0191 2.8163 13.4074 2.8163C13.4115 2.8163 13.4155 2.81625 13.4196 2.8162C13.806 2.82005 14.1192 3.13561 14.1192 3.52294C14.1192 4.40339 13.7967 5.00025 13.1334 5.34769C12.6292 5.61173 12.0975 5.64127 12.0109 5.64436C11.9232 5.6392 11.386 5.5973 10.8755 5.32486C10.2061 4.96772 9.88081 4.37831 9.88081 3.52294ZM8.588 12.8402C6.22658 12.7394 5.47198 12.2439 5.39839 11.967C5.33605 11.7324 5.37805 11.5915 5.55341 11.4472C5.70964 11.3186 5.91758 11.2433 5.98916 11.2237C6.23239 11.1674 6.42552 10.9919 6.49977 10.7534C6.57402 10.5147 6.51397 10.2603 6.34545 10.0759C6.28639 10.0065 5.87337 9.49556 6.19311 9.1433C6.24594 9.08513 6.34428 8.97684 6.68947 9.10252C6.98281 9.2093 7.22712 9.40931 7.22712 9.40927C7.41327 9.56602 7.66723 9.61538 7.89856 9.53981C8.12989 9.4642 8.30567 9.27431 8.36323 9.03787C8.51108 8.43098 8.73327 8.45756 8.80634 8.46637C9.17009 8.51006 9.78355 8.95988 10.334 9.86639C10.8503 10.7168 11.1737 11.7384 11.268 12.7968C10.6325 12.8389 9.61836 12.8842 8.588 12.8402ZM8.588 21.4926C6.22658 21.3917 5.47198 20.8963 5.39839 20.6194C5.33605 20.3848 5.37805 20.2439 5.55341 20.0995C5.70959 19.971 5.91758 19.8956 5.98916 19.876C6.23239 19.8197 6.42552 19.6443 6.49977 19.4057C6.57402 19.1671 6.51397 18.9127 6.34545 18.7283C6.28639 18.6589 5.87337 18.1479 6.19311 17.7957C6.24589 17.7375 6.34423 17.6292 6.68947 17.7549C6.98281 17.8617 7.22712 18.0617 7.22712 18.0616C7.41327 18.2184 7.66723 18.2677 7.89856 18.1922C8.12989 18.1166 8.30567 17.9267 8.36323 17.6902C8.51108 17.0833 8.73327 17.1099 8.80634 17.1187C9.17014 17.1624 9.78355 17.6122 10.334 18.5188C10.8503 19.3691 11.1737 20.3908 11.268 21.4492C10.6325 21.4913 9.61827 21.5365 8.588 21.4926ZM18.6016 20.6193C18.5282 20.8954 17.7766 21.3899 15.4252 21.492C14.3922 21.5368 13.371 21.4913 12.7319 21.449C12.8263 20.3907 13.1497 19.369 13.666 18.5188C14.2164 17.6122 14.8298 17.1624 15.1936 17.1187C15.2665 17.1099 15.4888 17.0833 15.6367 17.6902C15.6943 17.9267 15.8701 18.1165 16.1014 18.1922C16.3327 18.2677 16.5867 18.2184 16.7728 18.0616C16.775 18.0598 17.0052 17.8718 17.288 17.7633C17.651 17.624 17.7524 17.7357 17.8068 17.7956C18.1265 18.1479 17.7135 18.6589 17.6545 18.7283C17.486 18.9127 17.4259 19.167 17.5002 19.4057C17.5744 19.6442 17.7675 19.8197 18.0108 19.876C18.0823 19.8956 18.2903 19.971 18.4465 20.0995C18.6219 20.2438 18.6639 20.3847 18.6016 20.6193Z" fill="white"/>
</svg>
