<svg width="24" height="24" viewBox="0 0 24 24" fill="none" xmlns="http://www.w3.org/2000/svg">
<g clip-path="url(#clip0_77_399)">
<path d="M15.48 17.1839C13.5513 18.6822 11.124 19.389 8.69236 19.1605C6.26075 18.9319 4.00768 17.7852 2.39189 15.9538C0.776102 14.1223 -0.0809009 11.7439 -0.00461981 9.30278C0.0716613 6.86165 1.07549 4.54137 2.80247 2.81439C4.52945 1.08741 6.84973 0.0835822 9.29086 0.00730112C11.732 -0.06898 14.1104 0.788023 15.9419 2.40381C17.7733 4.0196 18.92 6.27267 19.1486 8.70428C19.3771 11.1359 18.6703 13.5632 17.172 15.4919L23.592 21.8879L21.888 23.5919L15.492 17.1839H15.48ZM9.6 16.7999C10.5455 16.7999 11.4818 16.6137 12.3553 16.2519C13.2289 15.89 14.0226 15.3597 14.6912 14.6911C15.3597 14.0225 15.8901 13.2288 16.2519 12.3552C16.6138 11.4817 16.8 10.5454 16.8 9.59992C16.8 8.6544 16.6138 7.71814 16.2519 6.8446C15.8901 5.97105 15.3597 5.17733 14.6912 4.50875C14.0226 3.84017 13.2289 3.30982 12.3553 2.94799C11.4818 2.58615 10.5455 2.39992 9.6 2.39992C7.69044 2.39992 5.85909 3.15849 4.50883 4.50875C3.15857 5.85901 2.4 7.69036 2.4 9.59992C2.4 11.5095 3.15857 13.3408 4.50883 14.6911C5.85909 16.0413 7.69044 16.7999 9.6 16.7999Z" fill="white"/>
</g>
<defs>
<clipPath id="clip0_77_399">
<rect width="24" height="24" fill="white"/>
</clipPath>
</defs>
</svg>
