<svg width="24" height="24" viewBox="0 0 24 24" fill="none" xmlns="http://www.w3.org/2000/svg">
<path d="M15.6923 13.1249V3.69231C15.6923 1.6531 14.0392 0 12 0C9.96081 0 8.30771 1.6531 8.30771 3.69231V13.1249C6.86539 14.2348 5.93408 15.9776 5.93408 17.9341C5.93408 21.2788 8.65531 24 12 24C15.3447 24 18.066 21.2788 18.066 17.9341C18.066 15.9776 17.1346 14.2348 15.6923 13.1249ZM12 20.3077C10.6912 20.3077 9.62639 19.2429 9.62639 17.9341C9.62639 16.9026 10.2879 16.0232 11.2088 15.6965V12.3956H12.7912V15.6965C13.7121 16.0231 14.3736 16.9026 14.3736 17.9341C14.3736 19.2429 13.3088 20.3077 12 20.3077Z" fill="white"/>
</svg>
