<svg width="24" height="24" viewBox="0 0 24 24" fill="none" xmlns="http://www.w3.org/2000/svg">
<path d="M13.2951 1.2672V1.2C13.2951 0.5376 12.7149 0 12 0C11.2851 0 10.7049 0.5376 10.7049 1.2V1.2672C5.83812 1.716 1.76775 4.6572 0 8.6988C0.944097 8.496 1.92316 8.3784 2.9346 8.3784C4.5314 8.3784 6.05439 8.6592 7.4673 9.1488C8.49298 8.7924 9.57695 8.5524 10.7049 8.4444V20.4C10.7049 21.0612 10.1235 21.6 9.40988 21.6C8.69631 21.6 8.11483 21.0612 8.11483 20.4C8.11483 19.7376 7.53464 19.2 6.81977 19.2C6.1049 19.2 5.52471 19.7376 5.52471 20.4C5.52471 22.3848 7.26786 24 9.40988 24C11.5519 24 13.2951 22.3848 13.2951 20.4V8.4444C14.4231 8.5524 15.507 8.7936 16.5327 9.1488C17.9456 8.6592 19.4686 8.3784 21.0654 8.3784C22.0768 8.3784 23.0559 8.496 24 8.7C22.2322 4.6572 18.1619 1.716 13.2951 1.2672Z" fill="white" fill-opacity="0.85"/>
</svg>
