<svg width="100" height="100" viewBox="0 0 100 100" fill="none" xmlns="http://www.w3.org/2000/svg">
<path fill-rule="evenodd" clip-rule="evenodd" d="M50 83.3333C31.5905 83.3333 16.6667 68.4096 16.6667 50C16.6667 31.5905 31.5905 16.6667 50 16.6667C68.4096 16.6667 83.3333 31.5905 83.3333 50C83.3333 68.4096 68.4096 83.3333 50 83.3333ZM50 0C52.3012 0 54.1667 1.86548 54.1667 4.16667V8.33333C54.1667 10.6345 52.3012 12.5 50 12.5C47.6987 12.5 45.8333 10.6345 45.8333 8.33333V4.16667C45.8333 1.86548 47.6987 0 50 0ZM50 87.5C52.3012 87.5 54.1667 89.3654 54.1667 91.6667V95.8333C54.1667 98.1346 52.3012 100 50 100C47.6987 100 45.8333 98.1346 45.8333 95.8333V91.6667C45.8333 89.3654 47.6987 87.5 50 87.5ZM91.6667 45.8333H95.8333C98.1346 45.8333 100 47.6987 100 50C100 52.3012 98.1346 54.1667 95.8333 54.1667H91.6667C89.3654 54.1667 87.5 52.3012 87.5 50C87.5 47.6987 89.3654 45.8333 91.6667 45.8333ZM4.16667 45.8333H8.33333C10.6345 45.8333 12.5 47.6987 12.5 50C12.5 52.3012 10.6345 54.1667 8.33333 54.1667H4.16667C1.86548 54.1667 0 52.3012 0 50C0 47.6987 1.86548 45.8333 4.16667 45.8333ZM85.3554 14.6447C86.9825 16.2718 86.9825 18.91 85.3554 20.5372L82.4092 23.4835C80.7817 25.1107 78.1437 25.1107 76.5167 23.4835C74.8892 21.8563 74.8892 19.2181 76.5167 17.591L79.4629 14.6447C81.09 13.0175 83.7283 13.0175 85.3554 14.6447ZM23.4835 76.5167C25.1107 78.1437 25.1107 80.7817 23.4835 82.4092L20.5372 85.3554C18.91 86.9825 16.2718 86.9825 14.6447 85.3554C13.0175 83.7283 13.0175 81.09 14.6447 79.4629L17.591 76.5167C19.2181 74.8892 21.8563 74.8892 23.4835 76.5167ZM82.4092 76.5167L85.3554 79.4629C86.9825 81.09 86.9825 83.7283 85.3554 85.3554C83.7283 86.9825 81.09 86.9825 79.4629 85.3554L76.5167 82.4092C74.8892 80.7817 74.8892 78.1437 76.5167 76.5167C78.1437 74.8892 80.7817 74.8892 82.4092 76.5167ZM20.5372 14.6447L23.4835 17.591C25.1107 19.2181 25.1107 21.8563 23.4835 23.4835C21.8563 25.1107 19.2181 25.1107 17.591 23.4835L14.6447 20.5372C13.0175 18.91 13.0175 16.2718 14.6447 14.6447C16.2718 13.0175 18.91 13.0175 20.5372 14.6447Z" fill="#3BFF3B"/>
</svg>
