<svg width="56" height="50" viewBox="0 0 56 50" fill="none" xmlns="http://www.w3.org/2000/svg">
<g filter="url(#filter0_d_337_30)">
<path fill-rule="evenodd" clip-rule="evenodd" d="M27.9813 3.4285C25.4365 1.2952 22.0887 0 18.4212 0C10.4566 0 4 6.10833 4 13.6433C4 17.1131 5.35037 20.298 7.60531 22.7055L28 42L47.7909 23.2767L48.376 22.6879C50.6309 20.2801 52 17.1131 52 13.6433C52 6.10833 45.5435 0 37.5787 0C33.9112 0 30.5635 1.2952 28.0187 3.42852L28 3.41086L27.9813 3.4285ZM28 8.52569L28.1464 8.64831L30.4211 6.4962L30.6581 6.29743C32.4981 4.75506 34.9152 3.81818 37.5787 3.81818C43.368 3.81818 48 8.24913 48 13.6433C48 16.116 47.036 18.3716 45.4301 20.1043L44.9312 20.6062L28 36.6243L10.514 20.0813C8.94381 18.3675 8 16.115 8 13.6433C8 8.24913 12.632 3.81818 18.4212 3.81818C21.0847 3.81818 23.5019 4.75506 25.3419 6.2974L25.5789 6.49608L27.8539 8.64823L28 8.52569Z" fill="#41B6FF"/>
</g>
<defs>
<filter id="filter0_d_337_30" x="0" y="0" width="56" height="50" filterUnits="userSpaceOnUse" color-interpolation-filters="sRGB">
<feFlood flood-opacity="0" result="BackgroundImageFix"/>
<feColorMatrix in="SourceAlpha" type="matrix" values="0 0 0 0 0 0 0 0 0 0 0 0 0 0 0 0 0 0 127 0" result="hardAlpha"/>
<feOffset dy="4"/>
<feGaussianBlur stdDeviation="2"/>
<feComposite in2="hardAlpha" operator="out"/>
<feColorMatrix type="matrix" values="0 0 0 0 0 0 0 0 0 0 0 0 0 0 0 0 0 0 0.25 0"/>
<feBlend mode="normal" in2="BackgroundImageFix" result="effect1_dropShadow_337_30"/>
<feBlend mode="normal" in="SourceGraphic" in2="effect1_dropShadow_337_30" result="shape"/>
</filter>
</defs>
</svg>
