<svg width="24" height="24" viewBox="0 0 24 24" fill="none" xmlns="http://www.w3.org/2000/svg">
<path d="M16 13H3C2.73478 13 2.48043 12.8946 2.29289 12.7071C2.10536 12.5196 2 12.2652 2 12C2 11.7348 2.10536 11.4804 2.29289 11.2929C2.48043 11.1054 2.73478 11 3 11H16C16.2652 11 16.5196 11.1054 16.7071 11.2929C16.8946 11.4804 17 11.7348 17 12C17 12.2652 16.8946 12.5196 16.7071 12.7071C16.5196 12.8946 16.2652 13 16 13Z" fill="white"/>
<path d="M17.5 22C17.2348 22 16.9804 21.8946 16.7929 21.7071C16.6054 21.5196 16.5 21.2652 16.5 21C16.5 20.7348 16.6054 20.4804 16.7929 20.2929C16.9804 20.1054 17.2348 20 17.5 20C17.8978 20 18.2794 19.842 18.5607 19.5607C18.842 19.2794 19 18.8978 19 18.5C19 18.1022 18.842 17.7206 18.5607 17.4393C18.2794 17.158 17.8978 17 17.5 17H3C2.73478 17 2.48043 16.8946 2.29289 16.7071C2.10536 16.5196 2 16.2652 2 16C2 15.7348 2.10536 15.4804 2.29289 15.2929C2.48043 15.1054 2.73478 15 3 15H17.5C18.4283 15 19.3185 15.3687 19.9749 16.0251C20.6313 16.6815 21 17.5717 21 18.5C21 19.4283 20.6313 20.3185 19.9749 20.9749C19.3185 21.6312 18.4283 22 17.5 22ZM12.5 9H3C2.73478 9 2.48043 8.89464 2.29289 8.70711C2.10536 8.51957 2 8.26522 2 8C2 7.73478 2.10536 7.48043 2.29289 7.29289C2.48043 7.10536 2.73478 7 3 7H12.5C12.8978 7 13.2794 6.84196 13.5607 6.56066C13.842 6.27936 14 5.89782 14 5.5C14 5.10217 13.842 4.72064 13.5607 4.43934C13.2794 4.15803 12.8978 4 12.5 4C12.2348 4 11.9804 3.89464 11.7929 3.70711C11.6054 3.51957 11.5 3.26522 11.5 3C11.5 2.73478 11.6054 2.48043 11.7929 2.29289C11.9804 2.10536 12.2348 2 12.5 2C13.4283 2 14.3185 2.36875 14.9749 3.02513C15.6313 3.6815 16 4.57174 16 5.5C16 6.42826 15.6313 7.3185 14.9749 7.97487C14.3185 8.63125 13.4283 9 12.5 9Z" fill="white"/>
</svg>
