<svg width="40" height="40" viewBox="0 0 40 40" fill="none" xmlns="http://www.w3.org/2000/svg">
<g filter="url(#filter0_d_25_299)">
<path d="M15.6547 28.3465C15.4343 28.952 14.835 29.2897 14.316 29.1008C13.797 28.9119 13.555 28.2679 13.7753 27.6625C13.9957 27.057 15.6841 25.342 15.6841 25.342C15.6841 25.342 15.8751 27.741 15.6547 28.3465Z" fill="#0084FF"/>
<path d="M20.6547 30.9065C20.4343 31.512 19.835 31.8497 19.316 31.6608C18.797 31.4719 18.555 30.8279 18.7753 30.2225C18.9957 29.617 20.6841 27.902 20.6841 27.902C20.6841 27.902 20.8751 30.301 20.6547 30.9065Z" fill="#0084FF"/>
<path d="M25.6547 27.1251C25.4343 27.7306 24.835 28.0683 24.316 27.8794C23.797 27.6905 23.555 27.0465 23.7753 26.4411C23.9957 25.8356 25.6841 24.1206 25.6841 24.1206C25.6841 24.1206 25.8751 26.5196 25.6547 27.1251Z" fill="#0084FF"/>
<path d="M27.9309 3.86337H27.0918C25.9709 2.36346 24.5429 1.23866 22.9484 0.599708C21.3538 -0.0392416 19.6476 -0.17031 17.9979 0.219407C16.3481 0.609124 14.8116 1.50619 13.5397 2.82229C12.2677 4.13838 11.3041 5.82813 10.7438 7.72518C9.89612 7.68081 9.04941 7.83664 8.25203 8.18379C7.45465 8.53095 6.72222 9.06261 6.09657 9.74844C5.47092 10.4343 4.9643 11.2608 4.60563 12.1809C4.24696 13.101 4.04326 14.0966 4.00618 15.1109C3.96909 16.1252 4.09933 17.1383 4.38948 18.0923C4.67962 19.0464 5.12397 19.9227 5.69717 20.6713C6.27038 21.4199 6.96119 22.026 7.73019 22.4552C8.49918 22.8843 9.33129 23.128 10.179 23.1724H27.9309C30.071 23.1724 32.1234 22.1552 33.6366 20.3447C35.1499 18.5341 36 16.0784 36 13.5179C36 10.9574 35.1499 8.50169 33.6366 6.69112C32.1234 4.88054 30.071 3.86337 27.9309 3.86337Z" fill="#798DD0"/>
</g>
<defs>
<filter id="filter0_d_25_299" x="0" y="0" width="40" height="39.7132" filterUnits="userSpaceOnUse" color-interpolation-filters="sRGB">
<feFlood flood-opacity="0" result="BackgroundImageFix"/>
<feColorMatrix in="SourceAlpha" type="matrix" values="0 0 0 0 0 0 0 0 0 0 0 0 0 0 0 0 0 0 127 0" result="hardAlpha"/>
<feOffset dy="4"/>
<feGaussianBlur stdDeviation="2"/>
<feComposite in2="hardAlpha" operator="out"/>
<feColorMatrix type="matrix" values="0 0 0 0 0 0 0 0 0 0 0 0 0 0 0 0 0 0 0.15 0"/>
<feBlend mode="normal" in2="BackgroundImageFix" result="effect1_dropShadow_25_299"/>
<feBlend mode="normal" in="SourceGraphic" in2="effect1_dropShadow_25_299" result="shape"/>
</filter>
</defs>
</svg>
