<svg width="40" height="40" viewBox="0 0 40 40" fill="none" xmlns="http://www.w3.org/2000/svg">
<g filter="url(#filter0_d_25_298)">
<path d="M16.6547 28.925C16.4343 29.5263 15.835 29.8617 15.316 29.6741C14.797 29.4865 14.555 28.8469 14.7753 28.2456C14.9957 27.6443 16.6841 25.9411 16.6841 25.9411C16.6841 25.9411 16.8751 28.3237 16.6547 28.925Z" fill="#0084FF"/>
<path d="M24.6547 30.9135C24.4343 31.5148 23.835 31.8502 23.316 31.6626C22.797 31.475 22.555 30.8355 22.7753 30.2342C22.9957 29.6329 24.6841 27.9297 24.6841 27.9297C24.6841 27.9297 24.8751 30.3122 24.6547 30.9135Z" fill="#0084FF"/>
<path d="M27.9309 3.83683H27.0918C25.9709 2.34722 24.5429 1.23015 22.9484 0.595587C21.3538 -0.038972 19.6476 -0.16914 17.9979 0.2179C16.3481 0.604939 14.8116 1.49584 13.5397 2.80289C12.2677 4.10995 11.3041 5.78809 10.7438 7.6721C9.89612 7.62803 9.04941 7.7828 8.25203 8.12756C7.45465 8.47233 6.72222 9.00034 6.09657 9.68145C5.47092 10.3626 4.9643 11.1834 4.60563 12.0972C4.24696 13.011 4.04326 13.9997 4.00618 15.0071C3.96909 16.0144 4.09933 17.0205 4.38948 17.968C4.67962 18.9155 5.12397 19.7858 5.69717 20.5292C6.27038 21.2727 6.96119 21.8747 7.73019 22.3009C8.49918 22.7271 9.33129 22.9691 10.179 23.0132H27.9309C30.071 23.0132 32.1234 22.003 33.6366 20.2049C35.1499 18.4067 36 15.968 36 13.425C36 10.8821 35.1499 8.44327 33.6366 6.64514C32.1234 4.84701 30.071 3.83683 27.9309 3.83683Z" fill="#798DD0"/>
</g>
<defs>
<filter id="filter0_d_25_298" x="0" y="0" width="40" height="39.7147" filterUnits="userSpaceOnUse" color-interpolation-filters="sRGB">
<feFlood flood-opacity="0" result="BackgroundImageFix"/>
<feColorMatrix in="SourceAlpha" type="matrix" values="0 0 0 0 0 0 0 0 0 0 0 0 0 0 0 0 0 0 127 0" result="hardAlpha"/>
<feOffset dy="4"/>
<feGaussianBlur stdDeviation="2"/>
<feComposite in2="hardAlpha" operator="out"/>
<feColorMatrix type="matrix" values="0 0 0 0 0 0 0 0 0 0 0 0 0 0 0 0 0 0 0.15 0"/>
<feBlend mode="normal" in2="BackgroundImageFix" result="effect1_dropShadow_25_298"/>
<feBlend mode="normal" in="SourceGraphic" in2="effect1_dropShadow_25_298" result="shape"/>
</filter>
</defs>
</svg>
