<svg width="40" height="40" viewBox="0 0 40 40" fill="none" xmlns="http://www.w3.org/2000/svg">
<g filter="url(#filter0_d_18_218)">
<path d="M14.0465 29.6867C13.43 29.6867 12.9302 30.2046 12.9302 30.8434C12.9302 31.4821 13.43 32 14.0465 32H25.9534C26.5699 32 27.0697 31.4821 27.0697 30.8434C27.0697 30.2046 26.5699 29.6867 25.9534 29.6867H14.0465Z" fill="#4A5781"/>
<path d="M5.11628 20.4322C4.49978 20.4322 4 20.9501 4 21.5888C4 22.2276 4.49978 22.7454 5.11628 22.7454L34.8837 22.7451C35.5002 22.7451 36 22.2273 36 21.5885C36 20.9497 35.5002 20.4319 34.8837 20.4319L5.11628 20.4322Z" fill="#4A5781"/>
<path d="M9.58137 25.0602C8.96487 25.0602 8.46509 25.5781 8.46509 26.2169C8.46509 26.8556 8.96487 27.3735 9.58137 27.3735H30.4186C31.0351 27.3735 31.5349 26.8556 31.5349 26.2169C31.5349 25.5781 31.0351 25.0602 30.4186 25.0602H9.58137Z" fill="#798DD0"/>
<mask id="mask0_18_218" style="mask-type:alpha" maskUnits="userSpaceOnUse" x="4" y="0" width="32" height="21">
<path d="M4 0H36V21H4V0Z" fill="#D9D9D9"/>
</mask>
<g mask="url(#mask0_18_218)">
<path d="M27.9309 3.86337H27.0918C25.9709 2.36346 24.5429 1.23866 22.9484 0.599708C21.3538 -0.0392416 19.6476 -0.17031 17.9979 0.219407C16.3481 0.609124 14.8116 1.50619 13.5397 2.82229C12.2677 4.13838 11.3041 5.82813 10.7438 7.72518C9.89612 7.68081 9.04941 7.83664 8.25203 8.18379C7.45465 8.53095 6.72222 9.06261 6.09657 9.74844C5.47092 10.4343 4.9643 11.2608 4.60563 12.1809C4.24696 13.101 4.04326 14.0966 4.00618 15.1109C3.96909 16.1252 4.09933 17.1383 4.38948 18.0923C4.67962 19.0464 5.12397 19.9227 5.69717 20.6713C6.27038 21.4199 6.96119 22.026 7.73019 22.4552C8.49918 22.8843 9.33129 23.128 10.179 23.1724H27.9309C30.071 23.1724 32.1234 22.1552 33.6366 20.3447C35.1499 18.5341 36 16.0784 36 13.5179C36 10.9574 35.1499 8.50169 33.6366 6.69112C32.1234 4.88054 30.071 3.86337 27.9309 3.86337Z" fill="#798DD0"/>
</g>
</g>
<defs>
<filter id="filter0_d_18_218" x="0" y="0" width="40" height="40" filterUnits="userSpaceOnUse" color-interpolation-filters="sRGB">
<feFlood flood-opacity="0" result="BackgroundImageFix"/>
<feColorMatrix in="SourceAlpha" type="matrix" values="0 0 0 0 0 0 0 0 0 0 0 0 0 0 0 0 0 0 127 0" result="hardAlpha"/>
<feOffset dy="4"/>
<feGaussianBlur stdDeviation="2"/>
<feComposite in2="hardAlpha" operator="out"/>
<feColorMatrix type="matrix" values="0 0 0 0 0 0 0 0 0 0 0 0 0 0 0 0 0 0 0.15 0"/>
<feBlend mode="normal" in2="BackgroundImageFix" result="effect1_dropShadow_18_218"/>
<feBlend mode="normal" in="SourceGraphic" in2="effect1_dropShadow_18_218" result="shape"/>
</filter>
</defs>
</svg>
