<svg width="40" height="40" viewBox="0 0 40 40" fill="none" xmlns="http://www.w3.org/2000/svg">
<g filter="url(#filter0_d_28_319)">
<path d="M15.2784 28.3479C15.058 28.9534 14.4586 29.2911 13.9397 29.1022C13.4207 28.9133 13.1786 28.2693 13.399 27.6639C13.6194 27.0584 15.3077 25.3434 15.3077 25.3434C15.3077 25.3434 15.4987 27.7424 15.2784 28.3479Z" fill="#0084FF"/>
<path d="M20.2784 30.9079C20.058 31.5134 19.4586 31.8511 18.9397 31.6622C18.4207 31.4733 18.1786 30.8293 18.399 30.2239C18.6194 29.6184 20.3077 27.9034 20.3077 27.9034C20.3077 27.9034 20.4987 30.3024 20.2784 30.9079Z" fill="#0084FF"/>
<path d="M25.2784 27.1265C25.058 27.732 24.4586 28.0697 23.9397 27.8808C23.4207 27.6919 23.1786 27.0479 23.399 26.4425C23.6194 25.837 25.3077 24.122 25.3077 24.122C25.3077 24.122 25.4987 26.521 25.2784 27.1265Z" fill="#0084FF"/>
<path d="M27.9309 3.86337H27.0918C25.9709 2.36346 24.5429 1.23866 22.9484 0.599708C21.3538 -0.0392416 19.6476 -0.17031 17.9979 0.219407C16.3481 0.609124 14.8116 1.50619 13.5397 2.82229C12.2677 4.13838 11.3041 5.82813 10.7438 7.72518C9.89612 7.68081 9.04941 7.83664 8.25203 8.18379C7.45465 8.53095 6.72222 9.06261 6.09657 9.74844C5.47092 10.4343 4.9643 11.2608 4.60563 12.1809C4.24696 13.101 4.04326 14.0966 4.00618 15.1109C3.96909 16.1252 4.09933 17.1383 4.38948 18.0923C4.67962 19.0464 5.12397 19.9227 5.69717 20.6713C6.27038 21.4199 6.96119 22.026 7.73019 22.4552C8.49918 22.8843 9.33129 23.128 10.179 23.1724H27.9309C30.071 23.1724 32.1234 22.1552 33.6366 20.3447C35.1499 18.5341 36 16.0784 36 13.5179C36 10.9574 35.1499 8.50169 33.6366 6.69112C32.1234 4.88054 30.071 3.86337 27.9309 3.86337Z" fill="#798DD0"/>
<path d="M31.97 18H29.03C27.76 18 27 18.76 27 20.03V22.97C27 24.24 27.76 25 29.03 25H31.97C33.24 25 34 24.24 34 22.97V20.03C34 18.76 33.24 18 31.97 18ZM30.21 22.45L28.97 23.68C28.88 23.77 28.76 23.82 28.65 23.82C28.52 23.82 28.41 23.77 28.32 23.68C28.14 23.5 28.14 23.21 28.32 23.03L29.55 21.79C29.74 21.61 30.03 21.61 30.21 21.79C30.39 21.97 30.39 22.27 30.21 22.45ZM30.21 19.97L28.97 21.21C28.88 21.3 28.76 21.35 28.65 21.35C28.52 21.35 28.41 21.3 28.32 21.21C28.14 21.03 28.14 20.73 28.32 20.55L29.55 19.32C29.74 19.14 30.03 19.14 30.21 19.32C30.39 19.5 30.39 19.79 30.21 19.97ZM32.68 22.45L31.45 23.68C31.35 23.77 31.24 23.82 31.12 23.82C31 23.82 30.88 23.77 30.79 23.68C30.61 23.5 30.61 23.21 30.79 23.03L32.03 21.79C32.21 21.61 32.5 21.61 32.68 21.79C32.86 21.97 32.86 22.27 32.68 22.45ZM32.68 19.97L31.45 21.21C31.35 21.3 31.24 21.35 31.12 21.35C31 21.35 30.88 21.3 30.79 21.21C30.61 21.03 30.61 20.73 30.79 20.55L32.03 19.32C32.21 19.14 32.5 19.14 32.68 19.32C32.86 19.5 32.86 19.79 32.68 19.97Z" fill="#C0F1FF"/>
</g>
<defs>
<filter id="filter0_d_28_319" x="0" y="0" width="40" height="39.7146" filterUnits="userSpaceOnUse" color-interpolation-filters="sRGB">
<feFlood flood-opacity="0" result="BackgroundImageFix"/>
<feColorMatrix in="SourceAlpha" type="matrix" values="0 0 0 0 0 0 0 0 0 0 0 0 0 0 0 0 0 0 127 0" result="hardAlpha"/>
<feOffset dy="4"/>
<feGaussianBlur stdDeviation="2"/>
<feComposite in2="hardAlpha" operator="out"/>
<feColorMatrix type="matrix" values="0 0 0 0 0 0 0 0 0 0 0 0 0 0 0 0 0 0 0.15 0"/>
<feBlend mode="normal" in2="BackgroundImageFix" result="effect1_dropShadow_28_319"/>
<feBlend mode="normal" in="SourceGraphic" in2="effect1_dropShadow_28_319" result="shape"/>
</filter>
</defs>
</svg>
