<svg width="40" height="40" viewBox="0 0 40 40" fill="none" xmlns="http://www.w3.org/2000/svg">
<g filter="url(#filter0_d_13_229)">
<path fill-rule="evenodd" clip-rule="evenodd" d="M13.6385 0C14.2773 0 14.7951 0.517845 14.7951 1.15663V1.92771C14.7951 2.56649 14.2773 3.08434 13.6385 3.08434C12.9997 3.08434 12.4819 2.56649 12.4819 1.92771V1.15663C12.4819 0.517845 12.9997 0 13.6385 0ZM6.82348 2.82308C7.27517 2.37138 8.0075 2.37138 8.4592 2.82308L8.7924 3.15628C9.24408 3.60796 9.24408 4.34029 8.7924 4.79199C8.3407 5.24368 7.60837 5.24368 7.15668 4.79199L6.82348 4.45879C6.37179 4.00709 6.37179 3.27476 6.82348 2.82308ZM20.4533 2.82329C20.905 3.27498 20.905 4.00732 20.4533 4.45901L20.1201 4.79221C19.6684 5.2439 18.9362 5.2439 18.4845 4.79221C18.0328 4.34052 18.0328 3.60818 18.4845 3.15649L18.8176 2.82329C19.2693 2.37161 20.0016 2.37161 20.4533 2.82329ZM4 9.63855C4 8.99977 4.51784 8.48192 5.15662 8.48192H5.9277C6.56648 8.48192 7.08433 8.99977 7.08433 9.63855C7.08433 10.2773 6.56648 10.7952 5.9277 10.7952H5.15662C4.51784 10.7952 4 10.2773 4 9.63855ZM8.7924 14.4851C9.24408 14.9368 9.24408 15.6692 8.7924 16.1209L8.4592 16.454C8.0075 16.9057 7.27517 16.9057 6.82348 16.454C6.37179 16.0023 6.37179 15.2699 6.82348 14.8184L7.15668 14.4851C7.60837 14.0334 8.3407 14.0334 8.7924 14.4851Z" fill="#FFAC33"/>
<path d="M19.8071 10.4096C19.8071 13.3906 17.3905 15.8072 14.4095 15.8072C11.4285 15.8072 9.01196 13.3906 9.01196 10.4096C9.01196 7.4286 11.4285 5.01202 14.4095 5.01202C17.3905 5.01202 19.8071 7.4286 19.8071 10.4096Z" fill="#FFAC33"/>
<path d="M28.1831 12.8346H27.3701C26.2843 11.3459 24.9009 10.2294 23.3562 9.59525C21.8115 8.96105 20.1587 8.83096 18.5605 9.21777C16.9622 9.60459 15.4738 10.495 14.2416 11.8013C13.0093 13.1076 12.0759 14.7848 11.5331 16.6677C10.7119 16.6237 9.89161 16.7783 9.11915 17.1229C8.34669 17.4675 7.63715 17.9952 7.03105 18.6759C6.42496 19.3566 5.93416 20.177 5.5867 21.0903C5.23924 22.0035 5.04191 22.9917 5.00598 23.9985C4.97005 25.0052 5.09623 26.0107 5.3773 26.9577C5.65838 27.9046 6.08885 28.7745 6.64414 29.5175C7.19943 30.2605 7.86866 30.8621 8.61362 31.2881C9.35858 31.7141 10.1647 31.956 10.9859 32H28.1831C30.2563 32 32.2445 30.9904 33.7105 29.1933C35.1764 27.3962 36 24.9588 36 22.4173C36 19.8758 35.1764 17.4384 33.7105 15.6413C32.2445 13.8442 30.2563 12.8346 28.1831 12.8346Z" fill="#798DD0"/>
</g>
<defs>
<filter id="filter0_d_13_229" x="0" y="0" width="40" height="40" filterUnits="userSpaceOnUse" color-interpolation-filters="sRGB">
<feFlood flood-opacity="0" result="BackgroundImageFix"/>
<feColorMatrix in="SourceAlpha" type="matrix" values="0 0 0 0 0 0 0 0 0 0 0 0 0 0 0 0 0 0 127 0" result="hardAlpha"/>
<feOffset dy="4"/>
<feGaussianBlur stdDeviation="2"/>
<feComposite in2="hardAlpha" operator="out"/>
<feColorMatrix type="matrix" values="0 0 0 0 0 0 0 0 0 0 0 0 0 0 0 0 0 0 0.15 0"/>
<feBlend mode="normal" in2="BackgroundImageFix" result="effect1_dropShadow_13_229"/>
<feBlend mode="normal" in="SourceGraphic" in2="effect1_dropShadow_13_229" result="shape"/>
</filter>
</defs>
</svg>
