<svg width="40" height="37" viewBox="0 0 40 37" fill="none" xmlns="http://www.w3.org/2000/svg">
<g filter="url(#filter0_d_18_214)">
<mask id="mask0_18_214" style="mask-type:alpha" maskUnits="userSpaceOnUse" x="4" y="0" width="32" height="32">
<rect x="4" width="32" height="32" fill="#D9D9D9"/>
</mask>
<g mask="url(#mask0_18_214)">
<path d="M27.9309 7.86337H27.0918C25.9709 6.36346 24.5429 5.23866 22.9484 4.59971C21.3538 3.96076 19.6476 3.82969 17.9979 4.21941C16.3481 4.60912 14.8116 5.50619 13.5397 6.82229C12.2677 8.13838 11.3041 9.82813 10.7438 11.7252C9.89613 11.6808 9.04941 11.8366 8.25203 12.1838C7.45465 12.5309 6.72222 13.0626 6.09657 13.7484C5.47092 14.4343 4.9643 15.2608 4.60563 16.1809C4.24696 17.101 4.04326 18.0966 4.00618 19.1109C3.96909 20.1252 4.09933 21.1383 4.38948 22.0923C4.67962 23.0464 5.12397 23.9227 5.69717 24.6713C6.27038 25.4199 6.96119 26.026 7.73019 26.4552C8.49918 26.8843 9.33129 27.128 10.179 27.1724H27.9309C30.071 27.1724 32.1234 26.1552 33.6366 24.3447C35.1499 22.5341 36 20.0784 36 17.5179C36 14.9574 35.1499 12.5017 33.6366 10.6911C32.1234 8.88054 30.071 7.86337 27.9309 7.86337Z" fill="#4A5781"/>
<path d="M29.5 15.4C28.7432 14.3443 27.7618 13.4875 26.6336 12.8974C25.5054 12.3072 24.2614 12 23 12C21.7386 12 20.4946 12.3072 19.3664 12.8974C18.2382 13.4875 17.2568 14.3443 16.5 15.4C14.7761 15.4 13.1228 16.1164 11.9038 17.3917C10.6848 18.6669 10 20.3965 10 22.2C10 24.0035 10.6848 25.7331 11.9038 27.0083C13.1228 28.2836 14.7761 29 16.5 29H29.5C31.2239 29 32.8772 28.2836 34.0962 27.0083C35.3152 25.7331 36 24.0035 36 22.2C36 20.3965 35.3152 18.6669 34.0962 17.3917C32.8772 16.1164 31.2239 15.4 29.5 15.4Z" fill="#798DD0"/>
</g>
</g>
<defs>
<filter id="filter0_d_18_214" x="0" y="4" width="40" height="33" filterUnits="userSpaceOnUse" color-interpolation-filters="sRGB">
<feFlood flood-opacity="0" result="BackgroundImageFix"/>
<feColorMatrix in="SourceAlpha" type="matrix" values="0 0 0 0 0 0 0 0 0 0 0 0 0 0 0 0 0 0 127 0" result="hardAlpha"/>
<feOffset dy="4"/>
<feGaussianBlur stdDeviation="2"/>
<feComposite in2="hardAlpha" operator="out"/>
<feColorMatrix type="matrix" values="0 0 0 0 0 0 0 0 0 0 0 0 0 0 0 0 0 0 0.15 0"/>
<feBlend mode="normal" in2="BackgroundImageFix" result="effect1_dropShadow_18_214"/>
<feBlend mode="normal" in="SourceGraphic" in2="effect1_dropShadow_18_214" result="shape"/>
</filter>
</defs>
</svg>
