<svg width="40" height="40" viewBox="0 0 40 40" fill="none" xmlns="http://www.w3.org/2000/svg">
<g filter="url(#filter0_d_18_224)">
<path d="M13.2121 19C18.2998 19 22.4242 14.7467 22.4242 9.5C22.4242 4.25329 18.2998 0 13.2121 0C8.12441 0 4 4.25329 4 9.5C4 14.7467 8.12441 19 13.2121 19Z" fill="#FFAC33"/>
<path d="M28.1831 12.8346H27.3701C26.2843 11.3459 24.9009 10.2294 23.3562 9.59525C21.8115 8.96105 20.1587 8.83096 18.5605 9.21777C16.9622 9.60459 15.4738 10.495 14.2416 11.8013C13.0093 13.1076 12.0759 14.7848 11.5331 16.6677C10.7119 16.6237 9.89161 16.7783 9.11915 17.1229C8.34669 17.4675 7.63715 17.9952 7.03105 18.6759C6.42496 19.3566 5.93416 20.177 5.5867 21.0903C5.23924 22.0035 5.04191 22.9917 5.00598 23.9985C4.97005 25.0052 5.09623 26.0107 5.3773 26.9577C5.65838 27.9046 6.08885 28.7745 6.64414 29.5175C7.19943 30.2605 7.86866 30.8621 8.61362 31.2881C9.35858 31.7141 10.1647 31.956 10.9859 32H28.1831C30.2563 32 32.2445 30.9904 33.7105 29.1933C35.1764 27.3962 36 24.9588 36 22.4173C36 19.8758 35.1764 17.4384 33.7105 15.6413C32.2445 13.8442 30.2563 12.8346 28.1831 12.8346Z" fill="#798DD0"/>
</g>
<defs>
<filter id="filter0_d_18_224" x="0" y="0" width="40" height="40" filterUnits="userSpaceOnUse" color-interpolation-filters="sRGB">
<feFlood flood-opacity="0" result="BackgroundImageFix"/>
<feColorMatrix in="SourceAlpha" type="matrix" values="0 0 0 0 0 0 0 0 0 0 0 0 0 0 0 0 0 0 127 0" result="hardAlpha"/>
<feOffset dy="4"/>
<feGaussianBlur stdDeviation="2"/>
<feComposite in2="hardAlpha" operator="out"/>
<feColorMatrix type="matrix" values="0 0 0 0 0 0 0 0 0 0 0 0 0 0 0 0 0 0 0.15 0"/>
<feBlend mode="normal" in2="BackgroundImageFix" result="effect1_dropShadow_18_224"/>
<feBlend mode="normal" in="SourceGraphic" in2="effect1_dropShadow_18_224" result="shape"/>
</filter>
</defs>
</svg>
