<svg width="40" height="40" viewBox="0 0 40 40" fill="none" xmlns="http://www.w3.org/2000/svg">
<g filter="url(#filter0_d_30_423)">
<path d="M27.9309 3.90835H27.0918C25.9709 2.39097 24.5429 1.25308 22.9484 0.60669C21.3538 -0.0396985 19.6476 -0.172293 17.9979 0.221961C16.3481 0.616215 14.8116 1.52372 13.5397 2.85514C12.2677 4.18656 11.3041 5.89598 10.7438 7.81512C9.89612 7.77022 9.04941 7.92788 8.25203 8.27907C7.45465 8.63026 6.72222 9.16812 6.09657 9.86193C5.47092 10.5557 4.9643 11.3919 4.60563 12.3227C4.24696 13.2535 4.04326 14.2607 4.00618 15.2868C3.96909 16.3129 4.09933 17.3378 4.38948 18.3029C4.67962 19.2681 5.12397 20.1546 5.69717 20.9119C6.27038 21.6692 6.96119 22.2825 7.73019 22.7166C8.49918 23.1507 9.33129 23.3973 10.179 23.4422H27.9309C30.071 23.4422 32.1234 22.4132 33.6366 20.5815C35.1499 18.7499 36 16.2656 36 13.6753C36 11.0849 35.1499 8.60066 33.6366 6.76901C32.1234 4.93736 30.071 3.90835 27.9309 3.90835Z" fill="#798DD0"/>
<ellipse cx="13.5" cy="27.8202" rx="1.5" ry="1.51746" fill="#D9D9D9"/>
<rect width="1.73" height="5" rx="0.865" transform="matrix(0.862328 0.50635 -0.493677 0.869645 20.5 25.0811)" fill="#9ACEFF"/>
<rect width="1.73" height="5" rx="0.865" transform="matrix(0.862328 0.50635 -0.493677 0.869645 23.5 27.0876)" fill="#9ACEFF"/>
<rect width="1.73" height="5" rx="0.865" transform="matrix(0.862328 0.50635 -0.493677 0.869645 28.5 24.0778)" fill="#9ACEFF"/>
</g>
<defs>
<filter id="filter0_d_30_423" x="0" y="0" width="40" height="39.9921" filterUnits="userSpaceOnUse" color-interpolation-filters="sRGB">
<feFlood flood-opacity="0" result="BackgroundImageFix"/>
<feColorMatrix in="SourceAlpha" type="matrix" values="0 0 0 0 0 0 0 0 0 0 0 0 0 0 0 0 0 0 127 0" result="hardAlpha"/>
<feOffset dy="4"/>
<feGaussianBlur stdDeviation="2"/>
<feComposite in2="hardAlpha" operator="out"/>
<feColorMatrix type="matrix" values="0 0 0 0 0 0 0 0 0 0 0 0 0 0 0 0 0 0 0.15 0"/>
<feBlend mode="normal" in2="BackgroundImageFix" result="effect1_dropShadow_30_423"/>
<feBlend mode="normal" in="SourceGraphic" in2="effect1_dropShadow_30_423" result="shape"/>
</filter>
</defs>
</svg>
