<svg width="40" height="40" viewBox="0 0 40 40" fill="none" xmlns="http://www.w3.org/2000/svg">
<g filter="url(#filter0_d_30_413)">
<path d="M27.9309 3.89572H27.0918C25.9709 2.38324 24.5429 1.24903 22.9484 0.604729C21.3538 -0.0395701 19.6476 -0.171736 17.9979 0.221244C16.3481 0.614224 14.8116 1.5188 13.5397 2.84591C12.2677 4.17303 11.3041 5.87693 10.7438 7.78986C9.89612 7.74511 9.04941 7.90225 8.25203 8.25231C7.45465 8.60237 6.72222 9.13848 6.09657 9.83005C5.47092 10.5216 4.9643 11.3551 4.60563 12.2829C4.24696 13.2107 4.04326 14.2146 4.00618 15.2374C3.96909 16.2602 4.09933 17.2817 4.38948 18.2438C4.67962 19.2058 5.12397 20.0895 5.69717 20.8443C6.27038 21.5992 6.96119 22.2104 7.73019 22.6432C8.49918 23.0759 9.33129 23.3217 10.179 23.3664H27.9309C30.071 23.3664 32.1234 22.3407 33.6366 20.515C35.1499 18.6893 36 16.213 36 13.6311C36 11.0491 35.1499 8.57286 33.6366 6.74713C32.1234 4.9214 30.071 3.89572 27.9309 3.89572Z" fill="#798DD0"/>
<ellipse cx="15.5" cy="27.7302" rx="1.5" ry="1.51256" fill="#D9D9D9"/>
<rect width="1.73" height="5" rx="0.865" transform="matrix(0.863043 0.505131 -0.494887 0.868958 21.5 27.1034)" fill="#9ACEFF"/>
<rect width="1.73" height="5" rx="0.865" transform="matrix(0.863043 0.505131 -0.494887 0.868958 27.5 25.2093)" fill="#9ACEFF"/>
</g>
<defs>
<filter id="filter0_d_30_413" x="0" y="0" width="40" height="40.0031" filterUnits="userSpaceOnUse" color-interpolation-filters="sRGB">
<feFlood flood-opacity="0" result="BackgroundImageFix"/>
<feColorMatrix in="SourceAlpha" type="matrix" values="0 0 0 0 0 0 0 0 0 0 0 0 0 0 0 0 0 0 127 0" result="hardAlpha"/>
<feOffset dy="4"/>
<feGaussianBlur stdDeviation="2"/>
<feComposite in2="hardAlpha" operator="out"/>
<feColorMatrix type="matrix" values="0 0 0 0 0 0 0 0 0 0 0 0 0 0 0 0 0 0 0.15 0"/>
<feBlend mode="normal" in2="BackgroundImageFix" result="effect1_dropShadow_30_413"/>
<feBlend mode="normal" in="SourceGraphic" in2="effect1_dropShadow_30_413" result="shape"/>
</filter>
</defs>
</svg>
