<svg width="40" height="40" viewBox="0 0 40 40" fill="none" xmlns="http://www.w3.org/2000/svg">
<g filter="url(#filter0_d_18_237)">
<path d="M18.2222 1.77778C18.2222 1.77778 18.2222 0 20 0C21.7778 0 21.7778 1.77778 21.7778 1.77778V3.55556C21.7778 3.55556 21.7778 5.33333 20 5.33333C18.2222 5.33333 18.2222 3.55556 18.2222 3.55556V1.77778ZM34.2222 14.2222C34.2222 14.2222 36 14.2222 36 16C36 17.7778 34.2222 17.7778 34.2222 17.7778H32.4444C32.4444 17.7778 30.6667 17.7778 30.6667 16C30.6667 14.2222 32.4444 14.2222 32.4444 14.2222H34.2222ZM7.55556 14.2222C7.55556 14.2222 9.33333 14.2222 9.33333 16C9.33333 17.7778 7.55556 17.7778 7.55556 17.7778H5.77778C5.77778 17.7778 4 17.7778 4 16C4 14.2222 5.77778 14.2222 5.77778 14.2222H7.55556ZM12.1076 6.48267C12.1076 6.48267 13.3644 7.73956 12.1076 8.99644C10.8507 10.2533 9.59378 8.99644 9.59378 8.99644L8.336 7.74044C8.336 7.74044 7.07911 6.48356 8.336 5.22578C9.59378 3.96889 10.8507 5.22578 10.8507 5.22578L12.1076 6.48267ZM30.7742 25.1493C30.7742 25.1493 32.0311 26.4062 30.7742 27.6631C29.5173 28.92 28.2604 27.6631 28.2604 27.6631L27.0036 26.4062C27.0036 26.4062 25.7467 25.1493 27.0036 23.8924C28.2604 22.6356 29.5173 23.8924 29.5173 23.8924L30.7742 25.1493ZM30.4071 8.99644C30.4071 8.99644 29.1502 10.2533 27.8933 8.99644C26.6364 7.73956 27.8933 6.48267 27.8933 6.48267L29.1502 5.22578C29.1502 5.22578 30.4071 3.96889 31.664 5.22578C32.9209 6.48267 31.664 7.73956 31.664 7.73956L30.4071 8.99644ZM11.7404 27.6631C11.7404 27.6631 10.4836 28.92 9.22667 27.6631C7.96978 26.4062 9.22667 25.1493 9.22667 25.1493L10.4836 23.8924C10.4836 23.8924 11.7404 22.6356 12.9973 23.8924C14.2542 25.1493 12.9973 26.4062 12.9973 26.4062L11.7404 27.6631ZM18.2222 28.4444C18.2222 28.4444 18.2222 26.6667 20 26.6667C21.7778 26.6667 21.7778 28.4444 21.7778 28.4444V30.2222C21.7778 30.2222 21.7778 32 20 32C18.2222 32 18.2222 30.2222 18.2222 30.2222V28.4444Z" fill="#FFAC33"/>
<path d="M20 24.8889C24.9092 24.8889 28.8889 20.9092 28.8889 16C28.8889 11.0908 24.9092 7.11111 20 7.11111C15.0908 7.11111 11.1111 11.0908 11.1111 16C11.1111 20.9092 15.0908 24.8889 20 24.8889Z" fill="#FFAC33"/>
</g>
<defs>
<filter id="filter0_d_18_237" x="0" y="0" width="40" height="40" filterUnits="userSpaceOnUse" color-interpolation-filters="sRGB">
<feFlood flood-opacity="0" result="BackgroundImageFix"/>
<feColorMatrix in="SourceAlpha" type="matrix" values="0 0 0 0 0 0 0 0 0 0 0 0 0 0 0 0 0 0 127 0" result="hardAlpha"/>
<feOffset dy="4"/>
<feGaussianBlur stdDeviation="2"/>
<feComposite in2="hardAlpha" operator="out"/>
<feColorMatrix type="matrix" values="0 0 0 0 0 0 0 0 0 0 0 0 0 0 0 0 0 0 0.15 0"/>
<feBlend mode="normal" in2="BackgroundImageFix" result="effect1_dropShadow_18_237"/>
<feBlend mode="normal" in="SourceGraphic" in2="effect1_dropShadow_18_237" result="shape"/>
</filter>
</defs>
</svg>
