<svg width="120" height="120" viewBox="0 0 120 120" fill="none" xmlns="http://www.w3.org/2000/svg">
<path d="M60.2335 0.000114441C76.1977 0.000114441 91.2063 6.24128 102.495 17.5735C113.783 28.9063 120 43.9735 120 60.0001C120 76.0266 113.783 91.0939 102.495 102.427C91.2063 113.759 76.1977 120 60.2335 120C44.2693 120 29.2606 113.759 17.972 102.427C6.68382 91.0939 0.466927 76.0266 0.466927 60.0001C0.466927 43.9735 6.68382 28.9063 17.972 17.5735C29.2606 6.24128 44.2693 0.000114441 60.2335 0.000114441Z" fill="#203C5A"/>
<path d="M81.3315 81.198C79.4998 81.198 77.7448 82.815 77.8296 84.7136C77.9146 86.6184 79.3683 88.2292 81.3315 88.2292C83.1633 88.2292 84.9182 86.6123 84.8335 84.7136C84.7485 82.8089 83.2947 81.198 81.3315 81.198Z" fill="#314F72"/>
<path d="M92.8894 48.7388C91.0576 48.7388 89.3027 50.3557 89.3874 52.2544C89.4724 54.1592 90.9262 55.77 92.8894 55.77C94.7211 55.77 96.4761 54.1531 96.3913 52.2544C96.3064 50.3496 94.8526 48.7388 92.8894 48.7388Z" fill="#314F72"/>
<path d="M59.7665 0.000244141C43.9155 0.000243951 28.7136 6.32165 17.5052 17.5738C6.29682 28.826 1.38574e-06 44.0872 0 60.0002C-1.38574e-06 75.9132 6.29681 91.1744 17.5052 102.427C28.7136 113.679 43.9155 120 59.7665 120L59.7665 60.0002L59.7665 0.000244141Z" fill="#FFEB37"/>
<path d="M27.1106 71.2615C28.9424 71.2615 30.6973 69.6445 30.6126 67.7458C30.5276 65.8411 29.0738 64.2302 27.1106 64.2302C25.2789 64.2302 23.5239 65.8472 23.6087 67.7458C23.6936 69.6506 25.1474 71.2615 27.1106 71.2615Z" fill="#FFD354"/>
<path d="M35.1507 45.8645C29.3417 45.8645 24.6157 41.12 24.6157 35.2883C24.6157 29.4566 29.3417 24.7122 35.1507 24.7122C40.9598 24.7122 45.6858 29.4566 45.6858 35.2883C45.6858 41.12 40.9598 45.8645 35.1507 45.8645Z" fill="#FFD354"/>
<path d="M42.1839 95.2878C36.3749 95.2878 31.6489 90.5434 31.6489 84.7117C31.6489 78.8799 36.3749 74.1355 42.1839 74.1355C47.993 74.1355 52.719 78.8799 52.719 84.7117C52.719 90.5434 47.9927 95.2878 42.1839 95.2878Z" fill="#FFD354"/>
</svg>
