<svg width="120" height="120" viewBox="0 0 120 120" fill="none" xmlns="http://www.w3.org/2000/svg">
<path d="M60 120C43.9734 120 28.9062 113.759 17.5734 102.427C6.24117 91.0938 0 76.0266 0 60C0 43.9734 6.24117 28.9062 17.5734 17.5734C28.9062 6.24117 43.9734 0 60 0C76.0266 0 91.0938 6.24117 102.427 17.5734C113.759 28.9062 120 43.9734 120 60C120 76.0266 113.759 91.0938 102.427 102.427C91.0938 113.759 76.0266 120 60 120Z" fill="#203C5A"/>
<path d="M102.427 102.427C113.759 91.0938 120 76.0266 120 60C120 43.9734 113.759 28.9062 102.427 17.5734C91.0938 6.24117 76.0266 0 60 0V120C76.0266 120 91.0938 113.759 102.427 102.427Z" fill="#082633"/>
<path d="M68.8479 63.5156C70.6868 63.5156 72.4486 61.8987 72.3636 60C72.2782 58.0952 70.8188 56.4844 68.8479 56.4844C67.009 56.4844 65.2472 58.1013 65.3323 60C65.4176 61.9048 66.8771 63.5156 68.8479 63.5156Z" fill="#203C5A"/>
<path d="M38.8195 38.8022C40.6584 38.8022 42.4202 37.1853 42.3351 35.2866C42.2498 33.3819 40.7903 31.771 38.8195 31.771C36.9806 31.771 35.2188 33.3879 35.3039 35.2866C35.3892 37.1914 36.8486 38.8022 38.8195 38.8022Z" fill="#314F72"/>
<path d="M27.2166 71.2615C29.0555 71.2615 30.8173 69.6445 30.7322 67.7458C30.6469 65.8411 29.1874 64.2302 27.2166 64.2302C25.3777 64.2302 23.6159 65.8472 23.701 67.7458C23.7863 69.6506 25.2457 71.2615 27.2166 71.2615Z" fill="#314F72"/>
<path d="M90.2344 92.3438C92.0733 92.3438 93.8351 90.7268 93.75 88.8281C93.6647 86.9234 92.2053 85.3125 90.2344 85.3125C88.3955 85.3125 86.6337 86.9295 86.7188 88.8281C86.8041 90.7329 88.2635 92.3438 90.2344 92.3438Z" fill="#203C5A"/>
<path d="M84.7121 31.6406C86.551 31.6406 88.3128 30.0237 88.2277 28.125C88.1424 26.2202 86.6829 24.6094 84.7121 24.6094C82.8732 24.6094 81.1114 26.2263 81.1964 28.125C81.2818 30.0298 82.741 31.6406 84.7121 31.6406Z" fill="#203C5A"/>
</svg>
