<svg width="120" height="120" viewBox="0 0 120 120" fill="none" xmlns="http://www.w3.org/2000/svg">
<path d="M0 60C0 26.8631 26.8631 0 60 0C67.9568 0 75.5503 1.54852 82.4988 4.36172V115.638C75.5503 118.451 67.9568 120 60 120C26.8631 120 0 93.1369 0 60Z" fill="#FFD354"/>
<path d="M60 120V0C26.8631 0 0 26.8631 0 60C0 93.1369 26.8631 120 60 120Z" fill="#FFEB37"/>
<path d="M45 60.0001C45 34.82 60.5105 13.2624 82.4988 4.36182C104.487 13.2624 120 34.82 120 60.0001C120 85.1802 104.487 106.738 82.4988 115.638C60.5105 106.738 45 85.1802 45 60.0001Z" fill="#082633"/>
<path d="M60 20.3154C50.6655 30.8923 45 44.7839 45 60C45 75.2161 50.6655 89.1078 60 99.6847V20.3154Z" fill="#203C5A"/>
<path d="M31.0913 92.373C25.2596 92.373 20.5151 87.6286 20.5151 81.7969C20.5151 75.9652 25.2596 71.2207 31.0913 71.2207C36.923 71.2207 41.6675 75.9652 41.6675 81.7969C41.6675 87.6286 36.923 92.373 31.0913 92.373Z" fill="#FFD354"/>
<path d="M32.4536 45.8643C26.6219 45.8643 21.8774 41.1198 21.8774 35.2881C21.8774 29.4564 26.6219 24.7119 32.4536 24.7119C38.2853 24.7119 43.0298 29.4564 43.0298 35.2881C43.0298 41.1198 38.2853 45.8643 32.4536 45.8643Z" fill="#FFD354"/>
<path d="M88.2422 36.4585C90.0811 36.4585 91.8429 34.8415 91.7578 32.9429C91.6725 31.0381 90.2131 29.4272 88.2422 29.4272C86.4033 29.4272 84.6415 31.0442 84.7266 32.9429C84.8119 34.8476 86.2714 36.4585 88.2422 36.4585Z" fill="#203C5A"/>
<path d="M90.2344 92.3438C92.0733 92.3438 93.8351 90.7268 93.75 88.8281C93.6647 86.9234 92.2053 85.3125 90.2344 85.3125C88.3955 85.3125 86.6337 86.9295 86.7188 88.8281C86.8041 90.7329 88.2635 92.3438 90.2344 92.3438Z" fill="#203C5A"/>
<path d="M18.3589 68.9177C20.1978 68.9177 21.9596 67.3008 21.8745 65.4021C21.7892 63.4973 20.3298 61.8865 18.3589 61.8865C16.52 61.8865 14.7582 63.5034 14.8433 65.4021C14.9286 67.3069 16.3881 68.9177 18.3589 68.9177Z" fill="#FFD354"/>
</svg>
