<svg width="120" height="120" viewBox="0 0 120 120" fill="none" xmlns="http://www.w3.org/2000/svg">
<path d="M120 60C120 93.1369 93.1368 120 59.9999 120C52.0431 120 44.4496 118.451 37.5011 115.638V4.36172C44.4496 1.54852 52.0431 0 59.9999 0C93.1368 0 120 26.8631 120 60Z" fill="#203C5A"/>
<path d="M60 0V120C93.1369 120 120 93.1369 120 60C120 26.8631 93.1369 0 60 0Z" fill="#082633"/>
<path d="M75 60.0001C75 85.1802 59.4895 106.738 37.5012 115.638C15.5128 106.738 0 85.1802 0 60.0001C0 34.82 15.5128 13.2624 37.5012 4.36182C59.4895 13.2624 75 34.82 75 60.0001Z" fill="#FFEB37"/>
<path d="M60 99.6847C69.3345 89.1078 75 75.2161 75 60C75 44.7839 69.3345 30.8923 60 20.3154V99.6847Z" fill="#FFD354"/>
<path d="M35.288 45.8643C29.4562 45.8643 24.7118 41.1198 24.7118 35.2881C24.7118 29.4564 29.4562 24.7119 35.288 24.7119C41.1197 24.7119 45.8641 29.4564 45.8641 35.2881C45.8641 41.1198 41.1197 45.8643 35.288 45.8643Z" fill="#FFD354"/>
<path d="M42.3485 95.2881C36.5168 95.2881 31.7723 90.5436 31.7723 84.7119C31.7723 78.8802 36.5168 74.1357 42.3485 74.1357C48.1802 74.1357 52.9247 78.8802 52.9247 84.7119C52.9247 90.5436 48.1802 95.2881 42.3485 95.2881Z" fill="#FFD354"/>
<path d="M88.2422 36.4585C90.0811 36.4585 91.8429 34.8415 91.7578 32.9429C91.6725 31.0381 90.2131 29.4272 88.2422 29.4272C86.4033 29.4272 84.6415 31.0442 84.7266 32.9429C84.8119 34.8476 86.2714 36.4585 88.2422 36.4585Z" fill="#203C5A"/>
<path d="M27.2166 71.2615C29.0555 71.2615 30.8173 69.6445 30.7322 67.7458C30.6469 65.8411 29.1874 64.2302 27.2166 64.2302C25.3777 64.2302 23.6159 65.8472 23.701 67.7458C23.7863 69.6506 25.2457 71.2615 27.2166 71.2615Z" fill="#FFD354"/>
<path d="M90.2344 92.3438C92.0733 92.3438 93.8351 90.7268 93.75 88.8281C93.6647 86.9234 92.2053 85.3125 90.2344 85.3125C88.3955 85.3125 86.6337 86.9295 86.7188 88.8281C86.8041 90.7329 88.2635 92.3438 90.2344 92.3438Z" fill="#203C5A"/>
</svg>
