<svg width="120" height="120" viewBox="0 0 120 120" fill="none" xmlns="http://www.w3.org/2000/svg">
<path d="M120 60C120 93.1369 93.1369 120 60 120C52.0432 120 44.4497 118.451 37.5012 115.638V4.36172C44.4497 1.54852 52.0432 0 60 0C93.1369 0 120 26.8631 120 60Z" fill="#FFEB37"/>
<path d="M60 0V120C93.1369 120 120 93.1369 120 60C120 26.8631 93.1369 0 60 0Z" fill="#FFD354"/>
<path d="M75 60.0001C75 85.1802 59.4895 106.738 37.5012 115.638C15.5128 106.738 0 85.1802 0 60.0001C0 34.82 15.5128 13.2624 37.5012 4.36182C59.4895 13.2624 75 34.82 75 60.0001Z" fill="#203C5A"/>
<path d="M38.8195 38.8022C40.6584 38.8022 42.4202 37.1853 42.3351 35.2866C42.2498 33.3819 40.7904 31.771 38.8195 31.771C36.9806 31.771 35.2188 33.3879 35.3039 35.2866C35.3892 37.1914 36.8487 38.8022 38.8195 38.8022Z" fill="#314F72"/>
<path d="M27.2166 71.2615C29.0555 71.2615 30.8173 69.6445 30.7322 67.7458C30.6469 65.8411 29.1874 64.2302 27.2166 64.2302C25.3776 64.2302 23.6159 65.8472 23.7009 67.7458C23.7862 69.6506 25.2457 71.2615 27.2166 71.2615Z" fill="#314F72"/>
<path d="M60 99.6847C69.3345 89.1078 75 75.2161 75 60C75 44.7839 69.3345 30.8923 60 20.3154V99.6847Z" fill="#082633"/>
<path d="M97.0458 74.1067C89.2673 74.1067 82.9392 67.7786 82.9392 60.0001C82.9392 52.2217 89.2673 45.8936 97.0458 45.8936C104.824 45.8936 111.152 52.2217 111.152 60.0001C111.152 67.7786 104.824 74.1067 97.0458 74.1067Z" fill="#FFBD44"/>
<path d="M90.2344 92.3438C92.0733 92.3438 93.8351 90.7268 93.75 88.8281C93.6647 86.9234 92.2052 85.3125 90.2344 85.3125C88.3955 85.3125 86.6337 86.9295 86.7188 88.8281C86.8041 90.7329 88.2635 92.3438 90.2344 92.3438Z" fill="#FFBD44"/>
<path d="M84.712 31.6406C86.5509 31.6406 88.3127 30.0237 88.2277 28.125C88.1424 26.2202 86.6829 24.6094 84.712 24.6094C82.8731 24.6094 81.1113 26.2263 81.1964 28.125C81.2817 30.0298 82.7409 31.6406 84.712 31.6406Z" fill="#FFBD44"/>
</svg>
