<svg width="120" height="120" viewBox="0 0 120 120" fill="none" xmlns="http://www.w3.org/2000/svg">
<path d="M0 60C0 26.8631 26.8631 0 60 0C67.9568 0 75.5503 1.54852 82.4988 4.36172V115.638C75.5503 118.451 67.9568 120 60 120C26.8631 120 0 93.1369 0 60Z" fill="#082633"/>
<path d="M60 120V0C26.8631 0 0 26.8631 0 60C0 93.1369 26.8631 120 60 120Z" fill="#203C5A"/>
<path d="M45 60.0001C45 34.82 60.5105 13.2624 82.4988 4.36182C104.487 13.2624 120 34.82 120 60.0001C120 85.1802 104.487 106.738 82.4988 115.638C60.5105 106.738 45 85.1802 45 60.0001Z" fill="#FFD354"/>
<path d="M60 20.3154C50.6655 30.8923 45 44.7839 45 60C45 75.2161 50.6655 89.1078 60 99.6847V20.3154Z" fill="#FFEB37"/>
<path d="M88.2422 74.1067C80.4637 74.1067 74.1356 67.7786 74.1356 60.0001C74.1356 52.2217 80.4637 45.8936 88.2422 45.8936C96.0206 45.8936 102.349 52.2217 102.349 60.0001C102.349 67.7786 96.0206 74.1067 88.2422 74.1067Z" fill="#FFBD44"/>
<path d="M90.2343 92.3438C92.0733 92.3438 93.835 90.7268 93.75 88.8281C93.6647 86.9234 92.2052 85.3125 90.2343 85.3125C88.3954 85.3125 86.6336 86.9295 86.7187 88.8281C86.804 90.7329 88.2635 92.3438 90.2343 92.3438Z" fill="#FFBD44"/>
<path d="M84.712 31.6406C86.5509 31.6406 88.3127 30.0237 88.2276 28.125C88.1423 26.2202 86.6829 24.6094 84.712 24.6094C82.8731 24.6094 81.1113 26.2263 81.1964 28.125C81.2817 30.0298 82.7409 31.6406 84.712 31.6406Z" fill="#FFBD44"/>
<path d="M38.8196 38.8022C40.6585 38.8022 42.4203 37.1853 42.3352 35.2866C42.2499 33.3819 40.7904 31.771 38.8196 31.771C36.9806 31.771 35.2188 33.3879 35.3039 35.2866C35.3892 37.1914 36.8487 38.8022 38.8196 38.8022Z" fill="#314F72"/>
<path d="M27.2166 71.2615C29.0555 71.2615 30.8173 69.6445 30.7322 67.7458C30.6469 65.8411 29.1874 64.2302 27.2166 64.2302C25.3777 64.2302 23.6159 65.8472 23.701 67.7458C23.7863 69.6506 25.2457 71.2615 27.2166 71.2615Z" fill="#314F72"/>
</svg>
